<?xml version="1.0" encoding="UTF-8"?>
<svg xmlns="http://www.w3.org/2000/svg" viewBox="384.50 87.00 376.00 376.00" preserveAspectRatio="xMidYMid meet">
  <g transform="translate(0.000000,972.000000) scale(0.100000,-0.100000)" fill="#000000">
    <path d="M5653 8654 c-32 -16 -63 -66 -63 -102 0 -10 13 -36 30 -56 l29 -38
-20 -51 c-22 -58 -57 -114 -164 -263 -118 -163 -139 -206 -139 -283 -1 -56 4
-75 32 -126 18 -33 52 -87 77 -120 25 -33 45 -65 45 -71 0 -6 -11 -16 -25 -22
-34 -15 -32 -47 3 -64 20 -10 27 -20 27 -43 0 -25 -7 -33 -44 -51 -37 -17 -47
-28 -55 -59 -8 -26 -21 -44 -41 -55 -34 -19 -45 -60 -20 -80 8 -7 30 -16 48
-19 21 -5 33 -14 35 -26 6 -28 31 -54 68 -70 31 -13 32 -15 39 -97 7 -88 -8
-398 -25 -503 -28 -172 -109 -369 -198 -480 -26 -33 -53 -76 -58 -95 -7 -26
-23 -44 -58 -67 -73 -47 -114 -91 -146 -157 -33 -66 -40 -139 -15 -172 21 -28
18 -37 -20 -62 -26 -17 -35 -29 -35 -51 0 -64 53 -76 400 -92 250 -12 720 -6
923 12 128 11 184 25 200 50 16 25 0 66 -33 86 -34 20 -37 33 -14 69 25 37 12
114 -28 181 -38 63 -68 93 -134 137 -35 22 -52 42 -61 68 -7 20 -34 64 -61 97
-56 70 -120 194 -155 301 -43 132 -58 248 -64 507 l-6 242 47 28 c31 19 49 38
57 60 7 22 17 33 29 33 27 0 68 20 74 37 8 21 -10 50 -41 65 -18 9 -30 26 -37
52 -9 32 -19 42 -56 60 -38 18 -45 26 -45 51 0 23 7 33 28 43 34 17 36 49 2
64 -14 6 -25 15 -25 19 0 4 29 51 65 103 80 119 101 183 85 260 -12 59 -37
102 -177 297 -49 70 -102 157 -118 193 l-28 67 25 27 c35 37 41 64 24 106 -28
67 -113 95 -183 60z"/>
  </g>
</svg>
