<?xml version="1.0" encoding="UTF-8"?>
<svg xmlns="http://www.w3.org/2000/svg" viewBox="-32.00 18.00 445.00 445.00" preserveAspectRatio="xMidYMid meet">
  <g transform="translate(0.000000,972.000000) scale(0.100000,-0.100000)" fill="#000000">
    <path d="M1818 9350 c-61 -11 -70 -25 -66 -99 l3 -66 -50 3 c-72 5 -90 -12
-90 -82 0 -73 24 -100 92 -102 27 -1 49 -2 50 -3 2 0 -6 -24 -17 -51 -11 -28
-20 -61 -20 -73 0 -14 -12 -32 -30 -45 -31 -24 -38 -50 -18 -70 18 -18 2 -27
-97 -50 -162 -39 -225 -84 -225 -161 0 -93 70 -307 162 -491 44 -89 63 -139
57 -146 -5 -6 -29 -19 -54 -28 -40 -16 -45 -21 -60 -71 -13 -45 -21 -56 -52
-72 -20 -10 -40 -28 -45 -41 -11 -32 28 -70 81 -78 34 -5 42 -11 47 -33 9 -35
38 -65 84 -86 21 -10 41 -24 45 -32 26 -70 10 -596 -25 -776 -44 -228 -129
-419 -256 -575 -24 -29 -46 -67 -49 -85 -9 -43 -21 -57 -85 -99 -143 -93 -239
-259 -211 -365 6 -22 18 -46 26 -53 24 -20 18 -34 -30 -68 -39 -27 -45 -37
-45 -66 0 -63 32 -77 220 -98 157 -17 1072 -17 1320 1 211 14 331 33 366 56
18 11 24 24 24 51 0 35 -6 44 -69 92 l-23 18 21 34 c25 42 28 109 6 170 -30
85 -129 200 -205 240 -41 21 -80 62 -80 85 0 22 -15 44 -93 144 -129 164 -229
434 -257 696 -13 125 -25 553 -16 588 4 18 17 29 41 37 39 13 85 62 85 91 0
21 6 24 63 34 77 13 86 89 13 119 -29 12 -37 23 -49 63 -12 43 -18 51 -65 73
-28 14 -54 29 -58 32 -3 4 17 53 44 110 98 199 149 358 159 490 l6 78 -37 35
c-36 34 -160 82 -258 100 -43 8 -42 6 -26 40 10 23 8 29 -20 58 -18 18 -32 40
-32 49 0 9 -9 38 -20 64 -11 26 -19 52 -17 58 2 6 23 11 47 12 34 0 48 6 66
28 31 35 32 93 3 130 -19 25 -27 27 -73 24 l-51 -3 3 58 c4 68 -11 92 -62 102
-17 4 -38 8 -46 9 -8 2 -32 0 -52 -4z"/>
  </g>
</svg>
