<?xml version="1.0" encoding="UTF-8"?>
<svg xmlns="http://www.w3.org/2000/svg" viewBox="594.50 119.00 345.00 345.00" preserveAspectRatio="xMidYMid meet">
  <g transform="translate(0.000000,972.000000) scale(0.100000,-0.100000)" fill="#000000">
    <path d="M7833 8338 c-5 -7 -17 -42 -27 -78 -9 -36 -21 -72 -26 -80 -6 -10
-36 -16 -97 -21 -101 -7 -113 -12 -247 -108 -120 -85 -255 -156 -316 -166 -72
-11 -164 -67 -189 -114 -17 -31 -27 -166 -13 -175 6 -4 39 0 74 8 35 8 64 13
66 11 2 -1 -30 -20 -70 -42 -77 -42 -93 -66 -63 -97 13 -13 37 -16 116 -16
110 0 175 18 230 64 30 25 34 26 170 26 120 0 145 3 183 21 24 11 52 29 62 40
28 31 34 23 34 -45 0 -54 -6 -75 -35 -131 -48 -93 -106 -172 -225 -305 -185
-208 -247 -293 -305 -425 -58 -131 -80 -273 -54 -341 5 -16 37 -54 70 -85 32
-32 59 -66 59 -76 0 -10 -29 -56 -65 -101 -36 -45 -65 -89 -65 -97 0 -33 -32
-76 -73 -96 -23 -12 -67 -48 -98 -79 -101 -104 -143 -232 -100 -305 11 -20 21
-40 21 -44 0 -5 -17 -20 -39 -34 -61 -41 -60 -106 2 -132 148 -62 1424 -72
1687 -14 58 13 80 34 80 76 0 27 -7 38 -40 61 -44 30 -48 46 -22 75 27 31 22
129 -10 192 -41 79 -97 142 -173 193 -58 40 -71 54 -81 89 -7 23 -40 77 -73
120 -34 44 -61 86 -61 96 0 26 54 81 131 134 l71 48 -6 47 c-5 32 0 73 15 133
19 76 20 94 10 155 -19 119 -15 171 24 271 33 85 35 99 35 206 0 101 4 125 31
209 l32 94 -41 104 c-23 58 -51 151 -62 207 -12 57 -23 106 -26 110 -2 4 -53
41 -112 83 -77 54 -113 86 -125 111 -15 32 -20 35 -61 35 -76 0 -89 10 -140
109 -26 50 -48 91 -50 91 -2 0 -8 -6 -13 -12z"/>
  </g>
</svg>
