<?xml version="1.0" encoding="UTF-8"?>
<svg xmlns="http://www.w3.org/2000/svg" viewBox="1007.00 228.00 234.00 234.00" preserveAspectRatio="xMidYMid meet">
  <g transform="translate(0.000000,972.000000) scale(0.100000,-0.100000)" fill="#000000">
    <path d="M11166 7244 c-129 -41 -216 -143 -216 -254 0 -87 18 -129 83 -193 35
-34 57 -65 55 -75 -2 -9 -24 -24 -53 -34 -106 -38 -125 -50 -125 -74 0 -17 16
-34 60 -64 69 -47 114 -104 132 -164 18 -60 15 -250 -5 -316 -22 -75 -65 -137
-128 -185 -28 -21 -58 -54 -65 -71 -10 -25 -24 -36 -60 -48 -92 -31 -160 -108
-184 -206 -11 -45 -10 -53 9 -84 l21 -34 -35 -21 c-28 -16 -35 -26 -35 -51 0
-26 6 -33 33 -45 118 -49 1059 -58 1172 -11 27 12 35 21 35 40 0 25 -3 29 -49
65 l-25 18 22 28 c26 33 27 45 7 112 -25 85 -101 163 -178 184 -29 8 -42 18
-52 42 -7 18 -42 56 -76 86 -45 40 -70 72 -93 120 -30 64 -31 71 -31 201 0
167 14 215 83 282 26 25 66 58 90 72 71 44 53 77 -64 116 -34 12 -68 28 -75
37 -11 13 -9 19 16 40 97 80 124 124 132 213 9 99 -57 204 -161 255 -68 33
-171 41 -240 19z"/>
  </g>
</svg>
