<?xml version="1.0" encoding="UTF-8"?>
<svg xmlns="http://www.w3.org/2000/svg" viewBox="199.00 74.00 388.00 388.00" preserveAspectRatio="xMidYMid meet">
  <g transform="translate(0.000000,972.000000) scale(0.100000,-0.100000)" fill="#000000">
    <path d="M3842 8780 c-65 -40 -77 -123 -27 -190 13 -18 22 -37 19 -42 -3 -5
-33 -22 -66 -39 -82 -41 -143 -100 -177 -171 l-28 -59 -17 25 c-9 15 -25 26
-36 26 -11 0 -20 5 -20 11 0 13 -69 3 -84 -12 -6 -5 -2 -33 12 -71 12 -35 36
-119 53 -187 34 -134 74 -242 138 -370 23 -44 41 -85 41 -91 0 -5 -22 -21 -50
-35 -37 -19 -50 -31 -50 -48 0 -35 -23 -71 -50 -77 -15 -4 -29 -17 -34 -33
-13 -35 12 -62 64 -71 33 -5 39 -11 45 -36 7 -30 41 -62 82 -74 12 -4 25 -17
29 -29 11 -33 7 -365 -6 -510 -22 -255 -108 -495 -234 -651 -31 -38 -56 -78
-56 -88 0 -32 -18 -55 -62 -81 -61 -35 -144 -127 -173 -189 -32 -68 -34 -144
-5 -181 11 -14 20 -27 20 -30 0 -2 -18 -16 -41 -31 -36 -25 -40 -30 -37 -64 4
-53 42 -68 203 -84 172 -16 976 -16 1184 1 244 19 291 34 291 93 0 15 -8 35
-17 43 -10 7 -29 22 -41 32 l-24 19 22 37 c56 95 -28 257 -185 360 -37 24 -52
41 -59 67 -5 19 -27 56 -48 82 -149 182 -235 421 -258 724 -12 152 -16 420 -6
451 3 10 26 29 51 41 34 16 46 29 53 54 7 28 15 35 55 46 54 15 74 41 57 73
-7 11 -25 25 -41 31 -23 8 -31 19 -40 55 -10 39 -18 47 -60 69 -27 13 -49 27
-49 31 0 4 20 47 44 97 67 139 94 214 136 379 21 84 46 173 54 199 14 45 14
47 -5 53 -11 4 -26 2 -33 -4 -9 -8 -18 -7 -32 4 -29 22 -48 18 -68 -16 l-18
-31 -30 53 c-40 74 -89 122 -169 164 -38 20 -71 39 -73 44 -3 4 6 23 19 41 34
46 39 80 19 128 -30 75 -114 104 -182 62z"/>
  </g>
</svg>
