<?xml version="1.0" encoding="UTF-8"?>
<svg xmlns="http://www.w3.org/2000/svg" viewBox="806.50 156.00 307.00 307.00" preserveAspectRatio="xMidYMid meet">
  <g transform="translate(0.000000,972.000000) scale(0.100000,-0.100000)" fill="#000000">
    <path d="M9583 7973 c-13 -2 -23 -9 -23 -14 0 -5 -17 -9 -38 -9 -51 0 -62 -14
-62 -81 l0 -56 -50 -31 -50 -31 0 90 c0 118 -6 129 -74 129 -53 0 -112 -14
-131 -32 -5 -5 -12 -72 -15 -149 l-5 -140 -32 -25 c-18 -14 -33 -32 -33 -40 0
-9 24 -41 54 -72 29 -31 56 -70 60 -85 4 -16 22 -51 41 -79 19 -27 40 -69 46
-91 17 -61 6 -307 -31 -687 -51 -533 -88 -663 -212 -743 -108 -69 -178 -176
-178 -270 0 -36 5 -59 15 -67 23 -19 18 -37 -19 -59 -38 -24 -49 -51 -36 -87
19 -50 169 -65 736 -71 452 -5 710 4 797 28 67 18 74 79 14 120 -17 12 -34 24
-36 25 -2 2 6 18 18 37 11 19 21 48 21 65 0 87 -89 219 -188 280 -80 49 -134
178 -161 387 -21 159 -61 727 -61 867 0 164 7 196 55 264 19 27 40 65 47 84 6
19 29 53 51 75 73 73 80 101 33 123 -30 13 -36 46 -36 191 0 64 -5 123 -10
131 -16 25 -184 14 -202 -14 -4 -6 -8 -48 -8 -93 0 -45 -4 -85 -10 -88 -5 -3
-10 -2 -10 3 0 4 -18 18 -40 31 l-40 22 0 78 0 79 -31 6 c-34 6 -130 6 -166
-1z"/>
  </g>
</svg>
